# ProBuilder 4.0.4
# https://unity3d.com/unity/features/worldbuilding/probuilder
# 06/05/2019 11:57:55

mtllib ./Cube_(1).mtl
o Cube (1)

g Cube (1)
v -0.2100002 0.02499998 -0.09000009
v 0.2899999 0.02499998 -0.09000009
v -0.2100002 0.03499997 -0.09000009
v 0.2899999 0.03499997 -0.09000009
v 0.2899999 0.02499998 -0.4000001
v 0.2899999 0.03499997 -0.4000001
v -0.2100002 0.02499998 -0.4000001
v -0.2100002 0.03499997 -0.4000001

vt 0.3000001 0
vt -0.2 0
vt 0.3000001 0.00999999
vt -0.2 0.00999999
vt 0.09999999 0
vt -0.21 0
vt 0.09999999 0.00999999
vt -0.21 0.00999999
vt 0.2 0
vt -0.3000001 0
vt 0.2 0.00999999
vt -0.3000001 0.00999999
vt 0.21 0
vt -0.09999999 0
vt 0.21 0.00999999
vt -0.09999999 0.00999999
vt -0.3000001 0.09999999
vt 0.2 0.09999999
vt -0.3000001 -0.21
vt 0.2 -0.21
vt 0.3000001 -0.21
vt -0.2 -0.21
vt 0.3000001 0.09999999
vt -0.2 0.09999999

vn 0 0 1
vn 1 0 0
vn 0 0 -1
vn -1 0 0
vn 0 1 0
vn 0 -1 0

g Cube (1)
usemtl Lit
f 1/1/1 2/2/1 3/3/1
f 2/2/1 4/4/1 3/3/1
f 2/5/2 5/6/2 4/7/2
f 5/6/2 6/8/2 4/7/2
f 5/9/3 7/10/3 6/11/3
f 7/10/3 8/12/3 6/11/3
f 7/13/4 1/14/4 8/15/4
f 1/14/4 3/16/4 8/15/4
f 3/17/5 4/18/5 8/19/5
f 4/18/5 6/20/5 8/19/5
f 7/21/6 5/22/6 1/23/6
f 5/22/6 2/24/6 1/23/6

